<svg width="24" height="24" viewBox="0 0 24 24" fill="none" xmlns="http://www.w3.org/2000/svg">
<path d="M14.6871 11.3725C14.3914 11.3725 14.14 11.2705 13.933 11.0665C13.726 10.8623 13.6225 10.6124 13.6225 10.3167C13.6225 10.021 13.7246 9.76978 13.9288 9.56297C14.133 9.35597 14.3828 9.25247 14.6783 9.25247C14.974 9.25247 15.2254 9.35447 15.4324 9.55847C15.6394 9.76266 15.7429 10.0126 15.7429 10.3083C15.7429 10.604 15.6408 10.8552 15.4366 11.062C15.2324 11.269 14.9826 11.3725 14.6871 11.3725ZM9.32166 11.3725C9.02597 11.3725 8.77462 11.2705 8.56762 11.0665C8.36062 10.8623 8.25713 10.6124 8.25713 10.3167C8.25713 10.021 8.35922 9.76978 8.56341 9.56297C8.76759 9.35597 9.01744 9.25247 9.31294 9.25247C9.60862 9.25247 9.85997 9.35447 10.067 9.55847C10.274 9.76266 10.3775 10.0126 10.3775 10.3083C10.3775 10.604 10.2754 10.8552 10.0712 11.062C9.867 11.269 9.61716 11.3725 9.32166 11.3725ZM12 16.7596C11.0914 16.7596 10.2581 16.5332 9.50025 16.0804C8.74219 15.6274 8.13309 15.0172 7.67297 14.25H16.327C15.8669 15.0172 15.2578 15.6274 14.4997 16.0804C13.7419 16.5332 12.9086 16.7596 12 16.7596ZM12.0011 21C10.7528 21 9.58303 20.7653 8.49197 20.2958C7.40091 19.8263 6.44756 19.1837 5.63194 18.3681C4.81631 17.5524 4.17375 16.5995 3.70425 15.5092C3.23475 14.419 3 13.2497 3 12.0011C3 10.7528 3.23475 9.58303 3.70425 8.49197C4.17375 7.40091 4.81631 6.44756 5.63194 5.63194C6.44756 4.81631 7.40053 4.17375 8.49084 3.70425C9.58097 3.23475 10.7503 3 11.9989 3C13.2472 3 14.417 3.23475 15.508 3.70425C16.5991 4.17375 17.5524 4.81631 18.3681 5.63194C19.1837 6.44756 19.8263 7.40053 20.2958 8.49084C20.7653 9.58097 21 10.7503 21 11.9989C21 13.2472 20.7653 14.417 20.2958 15.508C19.8263 16.5991 19.1837 17.5524 18.3681 18.3681C17.5524 19.1837 16.5995 19.8263 15.5092 20.2958C14.419 20.7653 13.2497 21 12.0011 21ZM12 19.875C14.175 19.875 16.0312 19.1062 17.5687 17.5687C19.1062 16.0312 19.875 14.175 19.875 12C19.875 9.825 19.1062 7.96875 17.5687 6.43125C16.0312 4.89375 14.175 4.125 12 4.125C11.7962 4.125 11.5924 4.13222 11.3886 4.14666C11.1846 4.16109 10.9903 4.18706 10.8058 4.22456C10.7511 4.36594 10.7193 4.48781 10.7105 4.59019C10.7018 4.69256 10.6975 4.81875 10.6975 4.96875C10.6975 5.44912 10.8696 5.86125 11.2136 6.20513C11.5575 6.54919 11.9718 6.72122 12.4565 6.72122C12.6642 6.72122 12.8275 6.69309 12.9464 6.63684C13.0655 6.58059 13.2 6.55247 13.35 6.55247C13.4762 6.55247 13.5813 6.60253 13.6653 6.70266C13.7493 6.80278 13.7913 6.91969 13.7913 7.05337C13.7913 7.30931 13.6475 7.48378 13.3598 7.57678C13.072 7.66978 12.7687 7.71628 12.45 7.71628C11.6929 7.71628 11.0456 7.44769 10.5082 6.9105C9.97106 6.37312 9.70247 5.72587 9.70247 4.96875V4.73897C9.70247 4.67091 9.71906 4.58016 9.75225 4.46672C8.12381 4.94278 6.77887 5.86444 5.71744 7.23169C4.65581 8.59894 4.125 10.1884 4.125 12C4.125 14.175 4.89375 16.0312 6.43125 17.5687C7.96875 19.1062 9.825 19.875 12 19.875Z" fill="black"/>
</svg>
