<svg width="24" height="24" viewBox="0 0 24 24" fill="none" xmlns="http://www.w3.org/2000/svg">
<path d="M5.6155 21C5.15517 21 4.77083 20.8458 4.4625 20.5375C4.15417 20.2291 4 19.8448 4 19.3845V6.61548C4 6.15514 4.15417 5.77081 4.4625 5.46248C4.77083 5.15414 5.15517 4.99998 5.6155 4.99998H7.3845V2.76923H8.4615V4.99998H15.6155V2.76923H16.6155V4.99998H18.3845C18.8448 4.99998 19.2292 5.15414 19.5375 5.46248C19.8458 5.77081 20 6.15514 20 6.61548V19.3845C20 19.8448 19.8458 20.2291 19.5375 20.5375C19.2292 20.8458 18.8448 21 18.3845 21H5.6155ZM5.6155 20H18.3845C18.5385 20 18.6796 19.9359 18.8078 19.8077C18.9359 19.6796 19 19.5385 19 19.3845V10.6155H5V19.3845C5 19.5385 5.06408 19.6796 5.19225 19.8077C5.32042 19.9359 5.4615 20 5.6155 20ZM5 9.61523H19V6.61548C19 6.46148 18.9359 6.32039 18.8078 6.19223C18.6796 6.06406 18.5385 5.99998 18.3845 5.99998H5.6155C5.4615 5.99998 5.32042 6.06406 5.19225 6.19223C5.06408 6.32039 5 6.46148 5 6.61548V9.61523ZM12 14.1537C11.7937 14.1537 11.6138 14.0771 11.4605 13.924C11.3073 13.7708 11.2308 13.591 11.2308 13.3845C11.2308 13.1781 11.3073 12.9984 11.4605 12.8452C11.6138 12.6921 11.7937 12.6155 12 12.6155C12.2063 12.6155 12.3862 12.6921 12.5395 12.8452C12.6927 12.9984 12.7692 13.1781 12.7692 13.3845C12.7692 13.591 12.6927 13.7708 12.5395 13.924C12.3862 14.0771 12.2063 14.1537 12 14.1537ZM8 14.1537C7.79367 14.1537 7.61383 14.0771 7.4605 13.924C7.30733 13.7708 7.23075 13.591 7.23075 13.3845C7.23075 13.1781 7.30733 12.9984 7.4605 12.8452C7.61383 12.6921 7.79367 12.6155 8 12.6155C8.20633 12.6155 8.38617 12.6921 8.5395 12.8452C8.69267 12.9984 8.76925 13.1781 8.76925 13.3845C8.76925 13.591 8.69267 13.7708 8.5395 13.924C8.38617 14.0771 8.20633 14.1537 8 14.1537ZM16 14.1537C15.7937 14.1537 15.6138 14.0771 15.4605 13.924C15.3073 13.7708 15.2307 13.591 15.2307 13.3845C15.2307 13.1781 15.3073 12.9984 15.4605 12.8452C15.6138 12.6921 15.7937 12.6155 16 12.6155C16.2063 12.6155 16.3862 12.6921 16.5395 12.8452C16.6927 12.9984 16.7693 13.1781 16.7693 13.3845C16.7693 13.591 16.6927 13.7708 16.5395 13.924C16.3862 14.0771 16.2063 14.1537 16 14.1537ZM12 18C11.7937 18 11.6138 17.9234 11.4605 17.7702C11.3073 17.6171 11.2308 17.4372 11.2308 17.2307C11.2308 17.0244 11.3073 16.8446 11.4605 16.6912C11.6138 16.5381 11.7937 16.4615 12 16.4615C12.2063 16.4615 12.3862 16.5381 12.5395 16.6912C12.6927 16.8446 12.7692 17.0244 12.7692 17.2307C12.7692 17.4372 12.6927 17.6171 12.5395 17.7702C12.3862 17.9234 12.2063 18 12 18ZM8 18C7.79367 18 7.61383 17.9234 7.4605 17.7702C7.30733 17.6171 7.23075 17.4372 7.23075 17.2307C7.23075 17.0244 7.30733 16.8446 7.4605 16.6912C7.61383 16.5381 7.79367 16.4615 8 16.4615C8.20633 16.4615 8.38617 16.5381 8.5395 16.6912C8.69267 16.8446 8.76925 17.0244 8.76925 17.2307C8.76925 17.4372 8.69267 17.6171 8.5395 17.7702C8.38617 17.9234 8.20633 18 8 18ZM16 18C15.7937 18 15.6138 17.9234 15.4605 17.7702C15.3073 17.6171 15.2307 17.4372 15.2307 17.2307C15.2307 17.0244 15.3073 16.8446 15.4605 16.6912C15.6138 16.5381 15.7937 16.4615 16 16.4615C16.2063 16.4615 16.3862 16.5381 16.5395 16.6912C16.6927 16.8446 16.7693 17.0244 16.7693 17.2307C16.7693 17.4372 16.6927 17.6171 16.5395 17.7702C16.3862 17.9234 16.2063 18 16 18Z" fill="black"/>
</svg>
