<svg width="24" height="24" viewBox="0 0 24 24" fill="none" xmlns="http://www.w3.org/2000/svg">
<path d="M5.45375 21.6635L4.7655 20.95L8.21525 17.5H5.2345V16.5H9.90375V21.1693H8.90375V18.2135L5.45375 21.6635ZM12.2885 21V20H17.3845C17.564 20 17.7115 19.9423 17.827 19.827C17.9423 19.7115 18 19.564 18 19.3845V8H14V4H6.6155C6.436 4 6.2885 4.05767 6.173 4.173C6.05767 4.2885 6 4.436 6 4.6155V14.1155H5V4.6155C5 4.168 5.15734 3.78683 5.472 3.472C5.78684 3.15733 6.168 3 6.6155 3H14.5L19 7.5V19.3845C19 19.832 18.8427 20.2132 18.528 20.528C18.2132 20.8427 17.832 21 17.3845 21H12.2885Z" fill="black"/>
</svg>
