<svg width="24" height="24" viewBox="0 0 24 24" fill="none" xmlns="http://www.w3.org/2000/svg">
<path d="M10.1344 21L9.77294 18.1078C9.45377 18.0116 9.10861 17.8603 8.73744 17.6538C8.36627 17.4474 8.05061 17.2263 7.79044 16.9905L5.12294 18.125L3.25769 14.875L5.56344 13.1365C5.53394 12.9558 5.50961 12.7697 5.49044 12.578C5.47111 12.3863 5.46144 12.2001 5.46144 12.0192C5.46144 11.8512 5.47111 11.6747 5.49044 11.4895C5.50961 11.3042 5.53394 11.0955 5.56344 10.8635L3.25769 9.125L5.12294 5.9135L7.77119 7.02875C8.06986 6.78008 8.39294 6.55575 8.74044 6.35575C9.08777 6.15575 9.42552 6.00125 9.75369 5.89225L10.1344 3H13.8654L14.2269 5.9115C14.6103 6.04617 14.949 6.20067 15.2432 6.375C15.5374 6.54933 15.8403 6.76725 16.1519 7.02875L18.8769 5.9135L20.7422 9.125L18.3594 10.9212C18.4146 11.1276 18.4454 11.317 18.4519 11.4895C18.4583 11.6618 18.4614 11.832 18.4614 12C18.4614 12.1552 18.455 12.3189 18.4422 12.4912C18.4294 12.6637 18.3999 12.8724 18.3537 13.1173L20.6979 14.875L18.8327 18.125L16.1519 16.9712C15.8403 17.2327 15.5268 17.4571 15.2114 17.6443C14.8961 17.8314 14.5679 17.9795 14.2269 18.0885L13.8654 21H10.1344ZM10.9999 20H12.9557L13.3249 17.2923C13.8288 17.1589 14.2823 16.9759 14.6854 16.7432C15.0888 16.5106 15.4994 16.1917 15.9172 15.7865L18.4114 16.85L19.4057 15.15L17.2172 13.5058C17.3005 13.2211 17.3557 12.9593 17.3827 12.7203C17.4095 12.4811 17.4229 12.241 17.4229 12C17.4229 11.7462 17.4095 11.5061 17.3827 11.2798C17.3557 11.0536 17.3005 10.8046 17.2172 10.5328L19.4442 8.85L18.4499 7.15L15.8979 8.21925C15.5954 7.88725 15.1977 7.576 14.7047 7.2855C14.2119 6.99517 13.7455 6.80258 13.3057 6.70775L12.9999 4H11.0057L10.6942 6.6885C10.1904 6.79617 9.72719 6.96958 9.30469 7.20875C8.88236 7.44775 8.46219 7.77625 8.04419 8.19425L5.54994 7.15L4.55569 8.85L6.72494 10.4693C6.64161 10.6936 6.58327 10.9372 6.54994 11.2C6.51661 11.4628 6.49994 11.7359 6.49994 12.0192C6.49994 12.2731 6.51661 12.525 6.54994 12.775C6.58327 13.025 6.63519 13.2686 6.70569 13.5058L4.55569 15.15L5.54994 16.85L8.02494 15.8C8.41727 16.1962 8.82461 16.5138 9.24694 16.753C9.66944 16.992 10.1454 17.1782 10.6749 17.3115L10.9999 20ZM11.9729 14.5C12.6704 14.5 13.2615 14.2577 13.7462 13.773C14.2307 13.2885 14.4729 12.6975 14.4729 12C14.4729 11.3025 14.2307 10.7115 13.7462 10.227C13.2615 9.74233 12.6704 9.5 11.9729 9.5C11.2718 9.5 10.6798 9.74233 10.1969 10.227C9.71427 10.7115 9.47294 11.3025 9.47294 12C9.47294 12.6975 9.71427 13.2885 10.1969 13.773C10.6798 14.2577 11.2718 14.5 11.9729 14.5Z" fill="black"/>
</svg>
