<svg width="24" height="24" viewBox="0 0 24 24" fill="none" xmlns="http://www.w3.org/2000/svg">
<path d="M19.4845 20.1537L13.223 13.8922C12.723 14.3179 12.148 14.6474 11.498 14.8807C10.848 15.1141 10.1948 15.2307 9.53849 15.2307C7.93682 15.2307 6.58124 14.6763 5.47174 13.5675C4.36241 12.4586 3.80774 11.1039 3.80774 9.50323C3.80774 7.90239 4.36216 6.54648 5.47099 5.43548C6.57982 4.32464 7.93457 3.76923 9.53524 3.76923C11.1361 3.76923 12.492 4.32389 13.603 5.43323C14.7138 6.54273 15.2692 7.89831 15.2692 9.49998C15.2692 10.1948 15.1462 10.8672 14.9 11.5172C14.6538 12.1672 14.3307 12.723 13.9307 13.1845L20.1922 19.4462L19.4845 20.1537ZM9.53849 14.2307C10.8653 14.2307 11.9855 13.774 12.899 12.8605C13.8125 11.9471 14.2692 10.827 14.2692 9.49998C14.2692 8.17298 13.8125 7.05281 12.899 6.13948C11.9855 5.22598 10.8653 4.76923 9.53849 4.76923C8.21149 4.76923 7.09132 5.22598 6.17799 6.13948C5.26449 7.05281 4.80774 8.17298 4.80774 9.49998C4.80774 10.827 5.26449 11.9471 6.17799 12.8605C7.09132 13.774 8.21149 14.2307 9.53849 14.2307Z" fill="black"/>
</svg>
